<svg id="instagram" xmlns="http://www.w3.org/2000/svg" width="36.784" height="36.784" viewBox="0 0 36.784 36.784">
  <g id="Group_7" data-name="Group 7">
    <g id="Group_6" data-name="Group 6">
      <path id="Path_2" data-name="Path 2" d="M25.289,0H11.495A11.5,11.5,0,0,0,0,11.495V25.289A11.5,11.5,0,0,0,11.495,36.784H25.289A11.5,11.5,0,0,0,36.784,25.289V11.495A11.5,11.5,0,0,0,25.289,0Zm8.046,25.289a8.055,8.055,0,0,1-8.046,8.046H11.495a8.055,8.055,0,0,1-8.046-8.046V11.495a8.055,8.055,0,0,1,8.046-8.046H25.289a8.055,8.055,0,0,1,8.046,8.046Z" fill="#117bfb"/>
    </g>
  </g>
  <g id="Group_9" data-name="Group 9" transform="translate(9.196 9.196)">
    <g id="Group_8" data-name="Group 8">
      <path id="Path_3" data-name="Path 3" d="M137.2,128a9.2,9.2,0,1,0,9.2,9.2A9.2,9.2,0,0,0,137.2,128Zm0,14.943a5.747,5.747,0,1,1,5.747-5.747A5.755,5.755,0,0,1,137.2,142.943Z" transform="translate(-128 -128)" fill="#117bfb"/>
    </g>
  </g>
  <g id="Group_11" data-name="Group 11" transform="translate(27.052 7.281)">
    <g id="Group_10" data-name="Group 10">
      <circle id="Ellipse_1" data-name="Ellipse 1" cx="1.225" cy="1.225" r="1.225" fill="#117bfb"/>
    </g>
  </g>
</svg>
