<svg xmlns="http://www.w3.org/2000/svg" width="36.78" height="36.78" viewBox="0 0 36.78 36.78">
  <path id="linkedin" d="M34.128,0H2.653A2.653,2.653,0,0,0,0,2.653V34.127A2.653,2.653,0,0,0,2.653,36.78H34.128a2.653,2.653,0,0,0,2.653-2.653V2.653A2.653,2.653,0,0,0,34.128,0ZM13.046,27.8H8.567V14.326h4.479ZM10.807,12.486h-.029a2.334,2.334,0,1,1,.059-4.656,2.335,2.335,0,1,1-.03,4.656ZM29.2,27.8H24.718V20.592c0-1.812-.648-3.047-2.269-3.047a2.452,2.452,0,0,0-2.3,1.638A3.067,3.067,0,0,0,20,20.276V27.8H15.525s.059-12.21,0-13.475H20v1.908A4.446,4.446,0,0,1,24.04,14.01c2.947,0,5.156,1.926,5.156,6.065Zm0,0" transform="translate(0)" fill="#117bfb"/>
</svg>
